<svg xmlns="http://www.w3.org/2000/svg" viewBox="0 0 1440 250" xmlns:c2pa="http://c2pa.org/manifest"><metadata><c2pa:manifest>AAAWgmp1bWIAAAAeanVtZGMycGEAEQAQgAAAqgA4m3EDYzJwYQAAABZcanVtYgAAAEdqdW1kYzJtYQARABCAAACqADibcQN1cm46YzJwYTo5NDI0ZjkwZi0xN2NhLTQ1MWMtODJlNi0zZDNhYWI2MTRhMGEAAAADl2p1bWIAAAApanVtZGMyYXMAEQAQgAAAqgA4m3EDYzJwYS5hc3NlcnRpb25zAAAAALxqdW1iAAAARGp1bWRjYm9yABEAEIAAAKoAOJtxE2MycGEuaW5ncmVkaWVudC52MwAAAAAYYzJzaM4A3Y1cVFRku2KDhs78p+kAAABwY2JvcqNpZGM6Zm9ybWF0bWltYWdlL3N2Zyt4bWxqaW5zdGFuY2VJRHgseG1wOmlpZDpmMmM0NWNlNy04YTA0LTRkNGUtYWVhYS04OWJiNzkxN2U1NzFscmVsYXRpb25zaGlwaHBhcmVudE9mAAAB4mp1bWIAAABBanVtZGNib3IAEQAQgAAAqgA4m3ETYzJwYS5hY3Rpb25zLnYyAAAAABhjMnNoq0ulf62p8YwSWy52BlLIJwAAAZljYm9yomdhY3Rpb25zgqJmYWN0aW9ua2MycGEub3BlbmVkanBhcmFtZXRlcnOha2luZ3JlZGllbnRzgaJjdXJseC1zZWxmI2p1bWJmPWMycGEuYXNzZXJ0aW9ucy9jMnBhLmluZ3JlZGllbnQudjNkaGFzaFgg4cGVUplpx+sKfSVTYaBThBRrxYZB9Aimj/BzgR8AWbikZmFjdGlvbngdY29tLmFudGhyb3BpYy5jbGF1ZGUucHJvdmlkZWRqcGFyYW1ldGVyc6F4H2NvbS5hbnRocm9waWMub3JpZ2luLWNvbmZpZGVuY2VndW5rbm93bmtkZXNjcmlwdGlvbnhmQ2xhdWRlIHByb3ZpZGVkIHRoaXMgZmlsZSBhdCB0aGUgcmVxdWVzdCBvZiBhIHVzZXIgYW5kIG1heSBoYXZlIGNyZWF0ZWQgb3IgbW9kaWZpZWQgdGhlIGZpbGUgY29udGVudHMubXNvZnR3YXJlQWdlbnShZG5hbWVmQ2xhdWRlcmFsbEFjdGlvbnNJbmNsdWRlZPUAAADIanVtYgAAAEBqdW1kY2JvcgARABCAAACqADibcRNjMnBhLmhhc2guZGF0YQAAAAAYYzJzaAHCcfMP0HLOhdWw4rqeGzYAAACAY2JvcqVjYWxnZnNoYTI1NmNwYWRNAAAAAAAAAAAAAAAAAGRoYXNoWCD02j2Cik1GMZM5VD2BZ+I1k2HxH8e11lKvfXP0FilJSGRuYW1lbmp1bWJmIG1hbmlmZXN0amV4Y2x1c2lvbnOBomVzdGFydBh+Zmxlbmd0aBkeBAAAAj5qdW1iAAAAJ2p1bWRjMmNsABEAEIAAAKoAOJtxA2MycGEuY2xhaW0udjIAAAACD2Nib3KlY2FsZ2ZzaGEyNTZpc2lnbmF0dXJleE1zZWxmI2p1bWJmPS9jMnBhL3VybjpjMnBhOjk0MjRmOTBmLTE3Y2EtNDUxYy04MmU2LTNkM2FhYjYxNGEwYS9jMnBhLnNpZ25hdHVyZWppbnN0YW5jZUlEeCx4bXA6aWlkOjc0MWY1Nzk5LWM1MzEtNDM1MC1iODhiLTkyNzczMmY0OGU3YnJjcmVhdGVkX2Fzc2VydGlvbnODomN1cmx4LXNlbGYjanVtYmY9YzJwYS5hc3NlcnRpb25zL2MycGEuaW5ncmVkaWVudC52M2RoYXNoWCDhwZVSmWnH6wp9JVNhoFOEFGvFhkH0CKaP8HOBHwBZuKJjdXJseCpzZWxmI2p1bWJmPWMycGEuYXNzZXJ0aW9ucy9jMnBhLmFjdGlvbnMudjJkaGFzaFggTuXTgoTfFgySHGQvVPuJ7Q47LCzTWZikRLgUc3hoY1+iY3VybHgpc2VsZiNqdW1iZj1jMnBhLmFzc2VydGlvbnMvYzJwYS5oYXNoLmRhdGFkaGFzaFggJUlaD4uij8u2lBiKQv9oumN2XMkjwHgxajNu39ihTY90Y2xhaW1fZ2VuZXJhdG9yX2luZm+jZG5hbWVvQW50aHJvcGljIEZpbGVzZ3ZlcnNpb25lMS4wLjBrc3BlY1ZlcnNpb25lMi40LjAAABA4anVtYgAAAChqdW1kYzJjcwARABCAAACqADibcQNjMnBhLnNpZ25hdHVyZQAAABAIY2JvctKEWQISogEmGCFZAgowggIGMIIBjaADAgECAhRA5aAK7sI50L64g/oGQgU9Z1UTADAKBggqhkjOPQQDAzBJMRcwFQYDVQQKEw5BbnRocm9waWMsIFBCQzEuMCwGA1UEAxMlQW50aHJvcGljIENvbnRlbnQgQ3JlZGVudGlhbHMgUm9vdCBDQTAeFw0yNjA4MDcxODQzNTZaFw0yODA4MDYxOTQzNTZaMEQxFzAVBgNVBAoTDkFudGhyb3BpYywgUEJDMSkwJwYDVQQDEyBBbnRocm9waWMgQ2xhdWRlIENvbnRlbnQgU2lnbmluZzBZMBMGByqGSM49AgEGCCqGSM49AwEHA0IABJh6CmvLUBgFFNU0vUKlOVtE6djd17L5SuwX0LemFisBM3dkd/3cyjxFA3Qo5S46fX0/ihY0VZ7mfb9KF703t5OjWDBWMA4GA1UdDwEB/wQEAwIHgDAVBgNVHSUEDjAMBgorBgEEAYPoXgIBMAwGA1UdEwEB/wQCMAAwHwYDVR0jBBgwFoAUzlHiBIFOZFsj+OPEz5o+nMHXXMIwCgYIKoZIzj0EAwMDZwAwZAIwMXMdFJ4BetLLVY7ORuE9noqbbAZOZn/aArXyTwFAZfKrPzxF2vPoJNf1+UCdg1XGAjBwX1zd9WGqYkqmL5SFqw1QySjr1zJfpJM9+1rdDwSPLMOPOjKuiXjoU/pUUeG9RwmhY3BhZFkNngAAAAAAAAAAAAAAAAAAAAAAAAAAAAAAAAAAAAAAAAAAAAAAAAAAAAAAAAAAAAAAAAAAAAAAAAAAAAAAAAAAAAAAAAAAAAAAAAAAAAAAAAAAAAAAAAAAAAAAAAAAAAAAAAAAAAAAAAAAAAAAAAAAAAAAAAAAAAAAAAAAAAAAAAAAAAAAAAAAAAAAAAAAAAAAAAAAAAAAAAAAAAAAAAAAAAAAAAAAAAAAAAAAAAAAAAAAAAAAAAAAAAAAAAAAAAAAAAAAAAAAAAAAAAAAAAAAAAAAAAAAAAAAAAAAAAAAAAAAAAAAAAAAAAAAAAAAAAAAAAAAAAAAAAAAAAAAAAAAAAAAAAAAAAAAAAAAAAAAAAAAAAAAAAAAAAAAAAAAAAAAAAAAAAAAAAAAAAAAAAAAAAAAAAAAAAAAAAAAAAAAAAAAAAAAAAAAAAAAAAAAAAAAAAAAAAAAAAAAAAAAAAAAAAAAAAAAAAAAAAAAAAAAAAAAAAAAAAAAAAAAAAAAAAAAAAAAAAAAAAAAAAAAAAAAAAAAAAAAAAAAAAAAAAAAAAAAAAAAAAAAAAAAAAAAAAAAAAAAAAAAAAAAAAAAAAAAAAAAAAAAAAAAAAAAAAAAAAAAAAAAAAAAAAAAAAAAAAAAAAAAAAAAAAAAAAAAAAAAAAAAAAAAAAAAAAAAAAAAAAAAAAAAAAAAAAAAAAAAAAAAAAAAAAAAAAAAAAAAAAAAAAAAAAAAAAAAAAAAAAAAAAAAAAAAAAAAAAAAAAAAAAAAAAAAAAAAAAAAAAAAAAAAAAAAAAAAAAAAAAAAAAAAAAAAAAAAAAAAAAAAAAAAAAAAAAAAAAAAAAAAAAAAAAAAAAAAAAAAAAAAAAAAAAAAAAAAAAAAAAAAAAAAAAAAAAAAAAAAAAAAAAAAAAAAAAAAAAAAAAAAAAAAAAAAAAAAAAAAAAAAAAAAAAAAAAAAAAAAAAAAAAAAAAAAAAAAAAAAAAAAAAAAAAAAAAAAAAAAAAAAAAAAAAAAAAAAAAAAAAAAAAAAAAAAAAAAAAAAAAAAAAAAAAAAAAAAAAAAAAAAAAAAAAAAAAAAAAAAAAAAAAAAAAAAAAAAAAAAAAAAAAAAAAAAAAAAAAAAAAAAAAAAAAAAAAAAAAAAAAAAAAAAAAAAAAAAAAAAAAAAAAAAAAAAAAAAAAAAAAAAAAAAAAAAAAAAAAAAAAAAAAAAAAAAAAAAAAAAAAAAAAAAAAAAAAAAAAAAAAAAAAAAAAAAAAAAAAAAAAAAAAAAAAAAAAAAAAAAAAAAAAAAAAAAAAAAAAAAAAAAAAAAAAAAAAAAAAAAAAAAAAAAAAAAAAAAAAAAAAAAAAAAAAAAAAAAAAAAAAAAAAAAAAAAAAAAAAAAAAAAAAAAAAAAAAAAAAAAAAAAAAAAAAAAAAAAAAAAAAAAAAAAAAAAAAAAAAAAAAAAAAAAAAAAAAAAAAAAAAAAAAAAAAAAAAAAAAAAAAAAAAAAAAAAAAAAAAAAAAAAAAAAAAAAAAAAAAAAAAAAAAAAAAAAAAAAAAAAAAAAAAAAAAAAAAAAAAAAAAAAAAAAAAAAAAAAAAAAAAAAAAAAAAAAAAAAAAAAAAAAAAAAAAAAAAAAAAAAAAAAAAAAAAAAAAAAAAAAAAAAAAAAAAAAAAAAAAAAAAAAAAAAAAAAAAAAAAAAAAAAAAAAAAAAAAAAAAAAAAAAAAAAAAAAAAAAAAAAAAAAAAAAAAAAAAAAAAAAAAAAAAAAAAAAAAAAAAAAAAAAAAAAAAAAAAAAAAAAAAAAAAAAAAAAAAAAAAAAAAAAAAAAAAAAAAAAAAAAAAAAAAAAAAAAAAAAAAAAAAAAAAAAAAAAAAAAAAAAAAAAAAAAAAAAAAAAAAAAAAAAAAAAAAAAAAAAAAAAAAAAAAAAAAAAAAAAAAAAAAAAAAAAAAAAAAAAAAAAAAAAAAAAAAAAAAAAAAAAAAAAAAAAAAAAAAAAAAAAAAAAAAAAAAAAAAAAAAAAAAAAAAAAAAAAAAAAAAAAAAAAAAAAAAAAAAAAAAAAAAAAAAAAAAAAAAAAAAAAAAAAAAAAAAAAAAAAAAAAAAAAAAAAAAAAAAAAAAAAAAAAAAAAAAAAAAAAAAAAAAAAAAAAAAAAAAAAAAAAAAAAAAAAAAAAAAAAAAAAAAAAAAAAAAAAAAAAAAAAAAAAAAAAAAAAAAAAAAAAAAAAAAAAAAAAAAAAAAAAAAAAAAAAAAAAAAAAAAAAAAAAAAAAAAAAAAAAAAAAAAAAAAAAAAAAAAAAAAAAAAAAAAAAAAAAAAAAAAAAAAAAAAAAAAAAAAAAAAAAAAAAAAAAAAAAAAAAAAAAAAAAAAAAAAAAAAAAAAAAAAAAAAAAAAAAAAAAAAAAAAAAAAAAAAAAAAAAAAAAAAAAAAAAAAAAAAAAAAAAAAAAAAAAAAAAAAAAAAAAAAAAAAAAAAAAAAAAAAAAAAAAAAAAAAAAAAAAAAAAAAAAAAAAAAAAAAAAAAAAAAAAAAAAAAAAAAAAAAAAAAAAAAAAAAAAAAAAAAAAAAAAAAAAAAAAAAAAAAAAAAAAAAAAAAAAAAAAAAAAAAAAAAAAAAAAAAAAAAAAAAAAAAAAAAAAAAAAAAAAAAAAAAAAAAAAAAAAAAAAAAAAAAAAAAAAAAAAAAAAAAAAAAAAAAAAAAAAAAAAAAAAAAAAAAAAAAAAAAAAAAAAAAAAAAAAAAAAAAAAAAAAAAAAAAAAAAAAAAAAAAAAAAAAAAAAAAAAAAAAAAAAAAAAAAAAAAAAAAAAAAAAAAAAAAAAAAAAAAAAAAAAAAAAAAAAAAAAAAAAAAAAAAAAAAAAAAAAAAAAAAAAAAAAAAAAAAAAAAAAAAAAAAAAAAAAAAAAAAAAAAAAAAAAAAAAAAAAAAAAAAAAAAAAAAAAAAAAAAAAAAAAAAAAAAAAAAAAAAAAAAAAAAAAAAAAAAAAAAAAAAAAAAAAAAAAAAAAAAAAAAAAAAAAAAAAAAAAAAAAAAAAAAAAAAAAAAAAAAAAAAAAAAAAAAAAAAAAAAAAAAAAAAAAAAAAAAAAAAAAAAAAAAAAAAAAAAAAAAAAAAAAAAAAAAAAAAAAAAAAAAAAAAAAAAAAAAAAAAAAAAAAAAAAAAAAAAAAAAAAAAAAAAAAAAAAAAAAAAAAAAAAAAAAAAAAAAAAAAAAAAAAAAAAAAAAAAAAAAAAAAAAAAAAAAAAAAAAAAAAAAAAAAAAAAAAAAAAAAAAAAAAAAAAAAAAAAAAAAAAAAAAAAAAAAAAAAAAAAAAAAAAAAAAAAAAAAAAAAAAAAAAAAAAAAAAAAAAAAAAAAAAAAAAAAAAAAAAAAAAAAAAAAAAAAAAAAAAAAAAAAAAAAAAAAAAAAAAAAAAAAAAAAAAAAAAAAAAAAAAAAAAAAAAAAAAAAAAAAAAAAAAAAAAAAAAAAAAAAAAAAAAAAAAAAAAAAAAAAAAAAAAAAAAAAAAAAAAAAAAAAAAAAAAAAAAAAAAAAAAAAAAAAAAAAAAAAAAAAAAAAAAAAAAAAAAAAAAAAAAAAAAAAAAAAAAAAAAAAAAAAAAAAAAAAAAAAAAAAAAAAAAAAAAAAAAAAAAAAAAAAAAAAAAAAAAAAAAAAAAAAAAAAAAAAAAAAAAAAAAAAAAAAAAAAAAAAAAAAAAAAAAAAAAAAAAAAAAAAAAAAAAAAAAAAAAAAAAAAAAAAAAAAAAAAAAAAAAAAAAAAAAAAAAAAAAAAAAAAAAAAAAAAAAAAAAAAAAAAAAAAAAAAAAAAAAAAAAAAAAAAAAAAAAAAAAAAAAAAAAAAAAAAAAAAAAAAAAAAAAAAAAAAAAAAAAAAAAAAAAAAAAAAAAAAAAAAAAAAAAAAAAAAAAAAAAAAAAAAAAAAAAAAAAAAAAAAAAAAAAAAAAAAAAAAAAAAAAAAAAAAAAAAAAAAAAAAAAAAAAAAAAAAAAAAAAAAAAAAAAAAAAAAAAAAAAAAAAAAAAAAAAAAAAAAAAAAAAAAAAAAAAAAAAAAAAAAAAAAAAAAAAAAAAAAAAAAAAAAAAAAAAAAAAAAAAAAAAAAAAAAAAAAAAAAAAAAAAAAAAAAAAAAAAAAAAAAAAAAAAAAAAAAAAAAAAAAAAAAAAAAAAAAAAAAAAAAAAAAAAAAAAAAAAAAAAAAAAAAAAAAAAAAAAAAAAAAAAAAAAAAAAAAAAAAAAAAAAAAAAAAAAAAAAAAAAAAAAAAAAAAAAAAAAAAAAAAAAAAAAAAAAAAAAAAAAAAAAAAAAAAAAAAAAAAAAAAAAAAAAAAAAAAAAAAAAAAAAAAAAAAAAAAAAAAAAAAAAAAAAAAAAAAAAAAAAAAAAAAAAAAAAAAAAAAAAAAAAAAAAAAAAAAAAAAAAAAAAAAAAAAAAAAAAAAAAAAAAAAAAAAAAAAAAAAAAAAAAAAAAAAAAAAAAAAAAAAAAAAAAAAAAAAAAAAAAAAAAAAAAAAAAAAAAAAAAAAAAAAAAAAAAAAAAAAAAAAAAAAAAAAAAAAAAAAAAAAAAAAAAAAAAAAAAAAAAAAAAAAAAAAAAAAAAAAAAAAAAAAAAAAAAAAAAAAAAAAAAAAAAAAAAAAAAAAAAAAAAAAAAAAAAAAAAAAAAAAAAAAAAAAAAAAAAAAAAAAAAAAAAAAAAAAAAAPZYQBdDivWlEJhqeKbPyytwdfBQL9QCEvkk0FwtiukN7QpU/hbgZ2hLEE3I1WSiyoCp5YijHtaOPt0e++OjXW25uMk=</c2pa:manifest></metadata>
<circle cx="1139.0" cy="246.1" r="2.12" fill="#f1d9fb" fill-opacity="0.41"/>
<circle cx="1132.3" cy="241.8" r="2.28" fill="#f1d9fb" fill-opacity="0.43"/>
<circle cx="1124.1" cy="237.6" r="2.44" fill="#f1d9fb" fill-opacity="0.46"/>
<circle cx="1114.5" cy="233.5" r="2.59" fill="#f1d9fb" fill-opacity="0.49"/>
<circle cx="1103.5" cy="229.5" r="2.74" fill="#f1d9fb" fill-opacity="0.52"/>
<circle cx="1091.2" cy="225.6" r="2.88" fill="#f1d9fb" fill-opacity="0.54"/>
<circle cx="1077.6" cy="221.8" r="3.02" fill="#f1d9fb" fill-opacity="0.57"/>
<circle cx="1062.7" cy="218.2" r="3.15" fill="#f1d9fb" fill-opacity="0.59"/>
<circle cx="1046.6" cy="214.8" r="3.28" fill="#f1d9fb" fill-opacity="0.61"/>
<circle cx="1029.3" cy="211.5" r="3.40" fill="#f1d9fb" fill-opacity="0.63"/>
<circle cx="1011.0" cy="208.4" r="3.52" fill="#f1d9fb" fill-opacity="0.65"/>
<circle cx="991.6" cy="205.5" r="3.63" fill="#f1d9fb" fill-opacity="0.67"/>
<circle cx="971.3" cy="202.8" r="3.73" fill="#f1d9fb" fill-opacity="0.69"/>
<circle cx="950.1" cy="200.3" r="3.82" fill="#f1d9fb" fill-opacity="0.71"/>
<circle cx="928.1" cy="198.1" r="3.90" fill="#f1d9fb" fill-opacity="0.72"/>
<circle cx="905.4" cy="196.1" r="3.98" fill="#f1d9fb" fill-opacity="0.73"/>
<circle cx="882.0" cy="194.3" r="4.04" fill="#f1d9fb" fill-opacity="0.75"/>
<circle cx="858.1" cy="192.7" r="4.10" fill="#f1d9fb" fill-opacity="0.76"/>
<circle cx="833.6" cy="191.4" r="4.15" fill="#f1d9fb" fill-opacity="0.76"/>
<circle cx="808.8" cy="190.4" r="4.19" fill="#f1d9fb" fill-opacity="0.77"/>
<circle cx="783.7" cy="189.6" r="4.22" fill="#f1d9fb" fill-opacity="0.78"/>
<circle cx="758.3" cy="189.1" r="4.23" fill="#f1d9fb" fill-opacity="0.78"/>
<circle cx="732.8" cy="188.8" r="4.24" fill="#f1d9fb" fill-opacity="0.78"/>
<circle cx="707.2" cy="188.8" r="4.24" fill="#f1d9fb" fill-opacity="0.78"/>
<circle cx="681.7" cy="189.1" r="4.23" fill="#f1d9fb" fill-opacity="0.78"/>
<circle cx="656.3" cy="189.6" r="4.22" fill="#f1d9fb" fill-opacity="0.78"/>
<circle cx="631.2" cy="190.4" r="4.19" fill="#f1d9fb" fill-opacity="0.77"/>
<circle cx="606.4" cy="191.4" r="4.15" fill="#f1d9fb" fill-opacity="0.76"/>
<circle cx="581.9" cy="192.7" r="4.10" fill="#f1d9fb" fill-opacity="0.76"/>
<circle cx="558.0" cy="194.3" r="4.04" fill="#f1d9fb" fill-opacity="0.75"/>
<circle cx="534.6" cy="196.1" r="3.98" fill="#f1d9fb" fill-opacity="0.73"/>
<circle cx="511.9" cy="198.1" r="3.90" fill="#f1d9fb" fill-opacity="0.72"/>
<circle cx="489.9" cy="200.3" r="3.82" fill="#f1d9fb" fill-opacity="0.71"/>
<circle cx="468.7" cy="202.8" r="3.73" fill="#f1d9fb" fill-opacity="0.69"/>
<circle cx="448.4" cy="205.5" r="3.63" fill="#f1d9fb" fill-opacity="0.67"/>
<circle cx="429.0" cy="208.4" r="3.52" fill="#f1d9fb" fill-opacity="0.65"/>
<circle cx="410.7" cy="211.5" r="3.40" fill="#f1d9fb" fill-opacity="0.63"/>
<circle cx="393.4" cy="214.8" r="3.28" fill="#f1d9fb" fill-opacity="0.61"/>
<circle cx="377.3" cy="218.2" r="3.15" fill="#f1d9fb" fill-opacity="0.59"/>
<circle cx="362.4" cy="221.8" r="3.02" fill="#f1d9fb" fill-opacity="0.57"/>
<circle cx="348.8" cy="225.6" r="2.88" fill="#f1d9fb" fill-opacity="0.54"/>
<circle cx="336.5" cy="229.5" r="2.74" fill="#f1d9fb" fill-opacity="0.52"/>
<circle cx="325.5" cy="233.5" r="2.59" fill="#f1d9fb" fill-opacity="0.49"/>
<circle cx="315.9" cy="237.6" r="2.44" fill="#f1d9fb" fill-opacity="0.46"/>
<circle cx="307.7" cy="241.8" r="2.28" fill="#f1d9fb" fill-opacity="0.43"/>
<circle cx="301.0" cy="246.1" r="2.12" fill="#f1d9fb" fill-opacity="0.41"/>
<circle cx="1101.2" cy="196.3" r="1.81" fill="#f1d9fb" fill-opacity="0.35"/>
<circle cx="1096.1" cy="191.9" r="1.98" fill="#f1d9fb" fill-opacity="0.38"/>
<circle cx="1089.4" cy="187.7" r="2.13" fill="#f1d9fb" fill-opacity="0.41"/>
<circle cx="1081.1" cy="183.5" r="2.29" fill="#f1d9fb" fill-opacity="0.44"/>
<circle cx="1071.3" cy="179.4" r="2.44" fill="#f1d9fb" fill-opacity="0.46"/>
<circle cx="1059.9" cy="175.4" r="2.59" fill="#f1d9fb" fill-opacity="0.49"/>
<circle cx="1047.0" cy="171.6" r="2.73" fill="#f1d9fb" fill-opacity="0.51"/>
<circle cx="1032.6" cy="167.9" r="2.87" fill="#f1d9fb" fill-opacity="0.54"/>
<circle cx="1016.9" cy="164.4" r="3.00" fill="#f1d9fb" fill-opacity="0.56"/>
<circle cx="999.9" cy="161.1" r="3.12" fill="#f1d9fb" fill-opacity="0.58"/>
<circle cx="981.7" cy="158.0" r="3.24" fill="#f1d9fb" fill-opacity="0.60"/>
<circle cx="962.4" cy="155.1" r="3.34" fill="#f1d9fb" fill-opacity="0.62"/>
<circle cx="941.9" cy="152.4" r="3.44" fill="#f1d9fb" fill-opacity="0.64"/>
<circle cx="920.5" cy="150.0" r="3.53" fill="#f1d9fb" fill-opacity="0.66"/>
<circle cx="898.3" cy="147.8" r="3.61" fill="#f1d9fb" fill-opacity="0.67"/>
<circle cx="875.2" cy="145.9" r="3.68" fill="#f1d9fb" fill-opacity="0.68"/>
<circle cx="851.5" cy="144.2" r="3.74" fill="#f1d9fb" fill-opacity="0.69"/>
<circle cx="827.2" cy="142.9" r="3.80" fill="#f1d9fb" fill-opacity="0.70"/>
<circle cx="802.4" cy="141.8" r="3.84" fill="#f1d9fb" fill-opacity="0.71"/>
<circle cx="777.3" cy="141.0" r="3.87" fill="#f1d9fb" fill-opacity="0.71"/>
<circle cx="751.9" cy="140.5" r="3.88" fill="#f1d9fb" fill-opacity="0.72"/>
<circle cx="726.4" cy="140.2" r="3.89" fill="#f1d9fb" fill-opacity="0.72"/>
<circle cx="700.8" cy="140.3" r="3.89" fill="#f1d9fb" fill-opacity="0.72"/>
<circle cx="675.4" cy="140.7" r="3.88" fill="#f1d9fb" fill-opacity="0.72"/>
<circle cx="650.1" cy="141.3" r="3.85" fill="#f1d9fb" fill-opacity="0.71"/>
<circle cx="625.1" cy="142.3" r="3.82" fill="#f1d9fb" fill-opacity="0.71"/>
<circle cx="600.6" cy="143.5" r="3.77" fill="#f1d9fb" fill-opacity="0.70"/>
<circle cx="576.6" cy="145.0" r="3.72" fill="#f1d9fb" fill-opacity="0.69"/>
<circle cx="553.2" cy="146.8" r="3.65" fill="#f1d9fb" fill-opacity="0.68"/>
<circle cx="530.5" cy="148.9" r="3.57" fill="#f1d9fb" fill-opacity="0.66"/>
<circle cx="508.6" cy="151.2" r="3.49" fill="#f1d9fb" fill-opacity="0.65"/>
<circle cx="487.7" cy="153.7" r="3.39" fill="#f1d9fb" fill-opacity="0.63"/>
<circle cx="467.8" cy="156.5" r="3.29" fill="#f1d9fb" fill-opacity="0.61"/>
<circle cx="449.0" cy="159.5" r="3.18" fill="#f1d9fb" fill-opacity="0.59"/>
<circle cx="431.4" cy="162.7" r="3.06" fill="#f1d9fb" fill-opacity="0.57"/>
<circle cx="415.0" cy="166.1" r="2.93" fill="#f1d9fb" fill-opacity="0.55"/>
<circle cx="400.0" cy="169.7" r="2.80" fill="#f1d9fb" fill-opacity="0.53"/>
<circle cx="386.4" cy="173.5" r="2.66" fill="#f1d9fb" fill-opacity="0.50"/>
<circle cx="374.2" cy="177.4" r="2.52" fill="#f1d9fb" fill-opacity="0.48"/>
<circle cx="363.6" cy="181.4" r="2.37" fill="#f1d9fb" fill-opacity="0.45"/>
<circle cx="354.5" cy="185.5" r="2.21" fill="#f1d9fb" fill-opacity="0.42"/>
<circle cx="347.0" cy="189.8" r="2.06" fill="#f1d9fb" fill-opacity="0.40"/>
<circle cx="341.1" cy="194.1" r="1.90" fill="#f1d9fb" fill-opacity="0.37"/>
<circle cx="1045.5" cy="144.5" r="1.84" fill="#f1d9fb" fill-opacity="0.36"/>
<circle cx="1038.7" cy="140.2" r="2.00" fill="#f1d9fb" fill-opacity="0.38"/>
<circle cx="1030.0" cy="136.0" r="2.15" fill="#f1d9fb" fill-opacity="0.41"/>
<circle cx="1019.5" cy="132.0" r="2.30" fill="#f1d9fb" fill-opacity="0.44"/>
<circle cx="1007.3" cy="128.0" r="2.45" fill="#f1d9fb" fill-opacity="0.46"/>
<circle cx="993.4" cy="124.3" r="2.59" fill="#f1d9fb" fill-opacity="0.49"/>
<circle cx="977.9" cy="120.8" r="2.72" fill="#f1d9fb" fill-opacity="0.51"/>
<circle cx="960.8" cy="117.5" r="2.84" fill="#f1d9fb" fill-opacity="0.53"/>
<circle cx="942.4" cy="114.4" r="2.95" fill="#f1d9fb" fill-opacity="0.55"/>
<circle cx="922.6" cy="111.5" r="3.06" fill="#f1d9fb" fill-opacity="0.57"/>
<circle cx="901.7" cy="109.0" r="3.15" fill="#f1d9fb" fill-opacity="0.59"/>
<circle cx="879.7" cy="106.7" r="3.24" fill="#f1d9fb" fill-opacity="0.60"/>
<circle cx="856.7" cy="104.7" r="3.31" fill="#f1d9fb" fill-opacity="0.62"/>
<circle cx="833.0" cy="103.1" r="3.37" fill="#f1d9fb" fill-opacity="0.63"/>
<circle cx="808.6" cy="101.7" r="3.42" fill="#f1d9fb" fill-opacity="0.64"/>
<circle cx="783.6" cy="100.7" r="3.46" fill="#f1d9fb" fill-opacity="0.64"/>
<circle cx="758.3" cy="100.0" r="3.49" fill="#f1d9fb" fill-opacity="0.65"/>
<circle cx="732.8" cy="99.7" r="3.50" fill="#f1d9fb" fill-opacity="0.65"/>
<circle cx="707.2" cy="99.7" r="3.50" fill="#f1d9fb" fill-opacity="0.65"/>
<circle cx="681.7" cy="100.0" r="3.49" fill="#f1d9fb" fill-opacity="0.65"/>
<circle cx="656.4" cy="100.7" r="3.46" fill="#f1d9fb" fill-opacity="0.64"/>
<circle cx="631.4" cy="101.7" r="3.42" fill="#f1d9fb" fill-opacity="0.64"/>
<circle cx="607.0" cy="103.1" r="3.37" fill="#f1d9fb" fill-opacity="0.63"/>
<circle cx="583.3" cy="104.7" r="3.31" fill="#f1d9fb" fill-opacity="0.62"/>
<circle cx="560.3" cy="106.7" r="3.24" fill="#f1d9fb" fill-opacity="0.60"/>
<circle cx="538.3" cy="109.0" r="3.15" fill="#f1d9fb" fill-opacity="0.59"/>
<circle cx="517.4" cy="111.5" r="3.06" fill="#f1d9fb" fill-opacity="0.57"/>
<circle cx="497.6" cy="114.4" r="2.95" fill="#f1d9fb" fill-opacity="0.55"/>
<circle cx="479.2" cy="117.5" r="2.84" fill="#f1d9fb" fill-opacity="0.53"/>
<circle cx="462.1" cy="120.8" r="2.72" fill="#f1d9fb" fill-opacity="0.51"/>
<circle cx="446.6" cy="124.3" r="2.59" fill="#f1d9fb" fill-opacity="0.49"/>
<circle cx="432.7" cy="128.0" r="2.45" fill="#f1d9fb" fill-opacity="0.46"/>
<circle cx="420.5" cy="132.0" r="2.30" fill="#f1d9fb" fill-opacity="0.44"/>
<circle cx="410.0" cy="136.0" r="2.15" fill="#f1d9fb" fill-opacity="0.41"/>
<circle cx="401.3" cy="140.2" r="2.00" fill="#f1d9fb" fill-opacity="0.38"/>
<circle cx="394.5" cy="144.5" r="1.84" fill="#f1d9fb" fill-opacity="0.36"/>
<circle cx="980.8" cy="100.3" r="1.87" fill="#f1d9fb" fill-opacity="0.36"/>
<circle cx="971.4" cy="96.1" r="2.03" fill="#f1d9fb" fill-opacity="0.39"/>
<circle cx="959.7" cy="92.1" r="2.17" fill="#f1d9fb" fill-opacity="0.42"/>
<circle cx="945.9" cy="88.3" r="2.32" fill="#f1d9fb" fill-opacity="0.44"/>
<circle cx="930.2" cy="84.8" r="2.45" fill="#f1d9fb" fill-opacity="0.46"/>
<circle cx="912.6" cy="81.5" r="2.57" fill="#f1d9fb" fill-opacity="0.49"/>
<circle cx="893.2" cy="78.5" r="2.68" fill="#f1d9fb" fill-opacity="0.51"/>
<circle cx="872.4" cy="75.9" r="2.78" fill="#f1d9fb" fill-opacity="0.52"/>
<circle cx="850.3" cy="73.5" r="2.86" fill="#f1d9fb" fill-opacity="0.54"/>
<circle cx="826.9" cy="71.6" r="2.93" fill="#f1d9fb" fill-opacity="0.55"/>
<circle cx="802.7" cy="70.1" r="2.99" fill="#f1d9fb" fill-opacity="0.56"/>
<circle cx="777.7" cy="68.9" r="3.03" fill="#f1d9fb" fill-opacity="0.57"/>
<circle cx="752.2" cy="68.2" r="3.06" fill="#f1d9fb" fill-opacity="0.57"/>
<circle cx="726.5" cy="67.9" r="3.07" fill="#f1d9fb" fill-opacity="0.57"/>
<circle cx="700.6" cy="68.0" r="3.07" fill="#f1d9fb" fill-opacity="0.57"/>
<circle cx="675.0" cy="68.5" r="3.05" fill="#f1d9fb" fill-opacity="0.57"/>
<circle cx="649.7" cy="69.4" r="3.01" fill="#f1d9fb" fill-opacity="0.56"/>
<circle cx="625.1" cy="70.8" r="2.97" fill="#f1d9fb" fill-opacity="0.56"/>
<circle cx="601.3" cy="72.5" r="2.90" fill="#f1d9fb" fill-opacity="0.54"/>
<circle cx="578.5" cy="74.7" r="2.82" fill="#f1d9fb" fill-opacity="0.53"/>
<circle cx="557.0" cy="77.1" r="2.73" fill="#f1d9fb" fill-opacity="0.51"/>
<circle cx="536.9" cy="80.0" r="2.63" fill="#f1d9fb" fill-opacity="0.50"/>
<circle cx="518.4" cy="83.1" r="2.51" fill="#f1d9fb" fill-opacity="0.48"/>
<circle cx="501.7" cy="86.5" r="2.38" fill="#f1d9fb" fill-opacity="0.45"/>
<circle cx="486.9" cy="90.2" r="2.25" fill="#f1d9fb" fill-opacity="0.43"/>
<circle cx="474.2" cy="94.1" r="2.10" fill="#f1d9fb" fill-opacity="0.40"/>
<circle cx="463.6" cy="98.2" r="1.95" fill="#f1d9fb" fill-opacity="0.38"/>
<circle cx="907.3" cy="65.1" r="1.89" fill="#f1d9fb" fill-opacity="0.37"/>
<circle cx="894.1" cy="61.3" r="2.03" fill="#f1d9fb" fill-opacity="0.39"/>
<circle cx="878.3" cy="57.8" r="2.16" fill="#f1d9fb" fill-opacity="0.41"/>
<circle cx="860.3" cy="54.7" r="2.28" fill="#f1d9fb" fill-opacity="0.43"/>
<circle cx="840.1" cy="51.9" r="2.38" fill="#f1d9fb" fill-opacity="0.45"/>
<circle cx="818.3" cy="49.7" r="2.47" fill="#f1d9fb" fill-opacity="0.47"/>
<circle cx="795.0" cy="47.8" r="2.53" fill="#f1d9fb" fill-opacity="0.48"/>
<circle cx="770.6" cy="46.5" r="2.58" fill="#f1d9fb" fill-opacity="0.49"/>
<circle cx="745.5" cy="45.7" r="2.61" fill="#f1d9fb" fill-opacity="0.49"/>
<circle cx="720.0" cy="45.4" r="2.62" fill="#f1d9fb" fill-opacity="0.50"/>
<circle cx="694.5" cy="45.7" r="2.61" fill="#f1d9fb" fill-opacity="0.49"/>
<circle cx="669.4" cy="46.5" r="2.58" fill="#f1d9fb" fill-opacity="0.49"/>
<circle cx="645.0" cy="47.8" r="2.53" fill="#f1d9fb" fill-opacity="0.48"/>
<circle cx="621.7" cy="49.7" r="2.47" fill="#f1d9fb" fill-opacity="0.47"/>
<circle cx="599.9" cy="51.9" r="2.38" fill="#f1d9fb" fill-opacity="0.45"/>
<circle cx="579.7" cy="54.7" r="2.28" fill="#f1d9fb" fill-opacity="0.43"/>
<circle cx="561.7" cy="57.8" r="2.16" fill="#f1d9fb" fill-opacity="0.41"/>
<circle cx="545.9" cy="61.3" r="2.03" fill="#f1d9fb" fill-opacity="0.39"/>
<circle cx="532.7" cy="65.1" r="1.89" fill="#f1d9fb" fill-opacity="0.37"/>
<circle cx="819.1" cy="39.7" r="1.90" fill="#f1d9fb" fill-opacity="0.37"/>
<circle cx="799.0" cy="37.0" r="2.00" fill="#f1d9fb" fill-opacity="0.39"/>
<circle cx="776.3" cy="34.9" r="2.08" fill="#f1d9fb" fill-opacity="0.40"/>
<circle cx="751.9" cy="33.5" r="2.13" fill="#f1d9fb" fill-opacity="0.41"/>
<circle cx="726.4" cy="32.9" r="2.15" fill="#f1d9fb" fill-opacity="0.41"/>
<circle cx="700.8" cy="33.1" r="2.15" fill="#f1d9fb" fill-opacity="0.41"/>
<circle cx="675.7" cy="34.1" r="2.11" fill="#f1d9fb" fill-opacity="0.40"/>
<circle cx="652.1" cy="35.8" r="2.05" fill="#f1d9fb" fill-opacity="0.39"/>
<circle cx="630.6" cy="38.3" r="1.95" fill="#f1d9fb" fill-opacity="0.38"/>
<circle cx="612.1" cy="41.4" r="1.84" fill="#f1d9fb" fill-opacity="0.36"/>
</svg>